<?xml version="1.0" encoding="UTF-8"?>
<svg version="1.1" viewBox="0 0 2000 2000" width="1280" height="1280" xmlns="http://www.w3.org/2000/svg">
<path transform="translate(0)" d="m0 0h2e3v2e3h-2e3z"/>
<path transform="translate(0)" d="m0 0h2e3v2e3h-2e3zm224 159-1 1v1596l1 1h1597l1-1v-1596l-1-1z"/>
<path transform="translate(224,159)" d="m0 0h1597l1 1v1596l-1 1h-1597l-1-1v-1596zm49 49-1 1498 1 1h1498l1-1498-1-1z" fill="#FEFEFE"/>
<path transform="translate(1292,1049)" d="m0 0h29l29 3 17 3 20 5 23 8 27 13 16 10 17 13 12 11 14 14 13 17 9 14 10 18 10 25 7 24 4 22 2 17v41l-3 24-4 20-6 20-6 16-10 21-11 18-14 18-15 16-12 11-18 13-17 10-16 8-19 8-24 7-25 5-29 3h-32l-30-3-23-5-18-5-25-10-16-8-18-11-13-10-10-9-8-7-14-15-14-19-11-19-10-21-8-24-5-21-3-21-1-11v-35l2-22 5-26 8-26 9-21 7-13 10-16 10-13 8-10h2l2-4 8-8 8-7 13-10 15-10 16-9 22-10 25-8 23-5 22-3z" fill="#FEFEFE"/>
<path transform="translate(1292,365)" d="m0 0h29l29 3 17 3 20 5 23 8 27 13 16 10 17 13 12 11 14 14 13 17 9 14 10 18 10 25 7 24 4 22 2 17v41l-3 24-4 20-6 20-6 16-10 21-11 18-14 18-15 16-12 11-18 13-17 10-16 8-19 8-24 7-25 5-29 3h-32l-30-3-23-5-18-5-25-10-16-8-18-11-13-10-10-9-8-7-14-15-14-19-11-19-10-21-8-24-5-21-3-21-1-11v-35l2-22 5-26 8-26 9-21 7-13 10-16 10-13 8-10h2l2-4 8-8 8-7 13-10 15-10 18-10 23-10 26-8 26-5 15-2z" fill="#FEFEFE"/>
<path transform="translate(487,1058)" d="m0 0h388l6 2v95l-2 1h-143v359l-2 1h-102l-1-1v-359h-144l-1-1v-96z" fill="#FEFEFE"/>
<path transform="translate(487,374)" d="m0 0h388l6 2v95l-2 1h-143v359l-2 1h-102l-1-1v-359h-144l-1-1v-96z" fill="#FEFEFE"/>
<path transform="translate(1298,1148)" d="m0 0h17l24 3 21 6 16 7 16 10 10 9 7 6 11 14 9 15 7 17 4 13 3 16 1 8v32l-4 23-6 18-8 17-11 16-12 13-15 12-18 10-15 6-15 4-10 2-10 1h-26l-21-3-15-4-16-7-10-5-14-10-10-9-8-8-11-16-8-15-6-17-4-17-2-18v-17l2-21 5-20 7-18 8-14 9-12 11-12 12-10 15-9 15-7 21-6 12-2z"/>
<path transform="translate(1298,464)" d="m0 0h17l24 3 21 6 16 7 16 10 10 9 6 5 9 11 10 15 8 18 5 16 3 16 1 8v32l-4 23-6 18-8 17-11 16-12 13-15 12-18 10-15 6-15 4-10 2-10 1h-26l-21-3-15-4-16-7-10-5-14-10-10-9-8-8-11-16-8-15-6-17-4-17-2-18v-17l2-21 5-20 7-18 8-14 9-12 11-12 12-10 15-9 15-7 21-6 12-2z"/>
</svg>
